<svg width="28" height="28" viewBox="0 0 28 28" fill="none" xmlns="http://www.w3.org/2000/svg">
<path d="M6.125 25.375H21.875" stroke="#D1D1D1" stroke-width="1.5" stroke-linecap="round" stroke-linejoin="round"/>
<path d="M14 14.875C15.933 14.875 17.5 13.308 17.5 11.375C17.5 9.442 15.933 7.875 14 7.875C12.067 7.875 10.5 9.442 10.5 11.375C10.5 13.308 12.067 14.875 14 14.875Z" stroke="#D1D1D1" stroke-width="1.5" stroke-linecap="round" stroke-linejoin="round"/>
<path d="M22.75 11.375C22.75 19.25 14 25.375 14 25.375C14 25.375 5.25 19.25 5.25 11.375C5.25 9.05436 6.17187 6.82876 7.81282 5.18782C9.45376 3.54687 11.6794 2.625 14 2.625C16.3206 2.625 18.5462 3.54687 20.1872 5.18782C21.8281 6.82876 22.75 9.05436 22.75 11.375V11.375Z" stroke="#D1D1D1" stroke-width="1.5" stroke-linecap="round" stroke-linejoin="round"/>
</svg>
