<svg width="31" height="31" viewBox="0 0 31 31" fill="none" xmlns="http://www.w3.org/2000/svg">
<path d="M26.1567 26.157H4.84424" stroke="#D1D1D1" stroke-width="1.5" stroke-linecap="round" stroke-linejoin="round"/>
<path d="M17.4375 9.6875V21.3125C17.4375 21.8475 17.8712 22.2812 18.4062 22.2812H23.25C23.785 22.2812 24.2188 21.8475 24.2188 21.3125V9.6875C24.2188 9.15247 23.785 8.71875 23.25 8.71875H18.4062C17.8712 8.71875 17.4375 9.15247 17.4375 9.6875Z" stroke="#D1D1D1" stroke-width="1.5" stroke-linecap="round" stroke-linejoin="round"/>
<path d="M12.5938 3.875H7.75C7.21497 3.875 6.78125 4.30872 6.78125 4.84375V21.3125C6.78125 21.8475 7.21497 22.2812 7.75 22.2812H12.5938C13.1288 22.2812 13.5625 21.8475 13.5625 21.3125V4.84375C13.5625 4.30872 13.1288 3.875 12.5938 3.875Z" stroke="#D1D1D1" stroke-width="1.5" stroke-linecap="round" stroke-linejoin="round"/>
</svg>
